<svg width="250" height="250" fill="none" xmlns="http://www.w3.org/2000/svg"><path d="M232.253 63.077v123.845L125 248.845 17.747 186.922V63.077L125 1.154l107.253 61.923z" fill="#fff" stroke="#fff" stroke-width="2"/><path d="M30.788 82.512v99.338l31.343 18.064v-27.099l23.521 13.55v27.098l31.343 18.064v-99.333L30.788 82.512zm54.848 76.765l-23.521-13.539v-18.064l23.521 13.55v18.053zM39.409 67.76l85.588-49.287 23.349 13.476L86.094 67.76l7.783 4.475 62.246-35.812 54.468 31.337-85.594 49.235-23.342-13.429 62.293-35.832-7.825-4.453-62.246 35.811L39.41 67.76zM133.005 132.193v99.334l31.345-18.068v-27.094l23.516-13.55v27.094l31.346-18.063V82.512l-86.207 49.681zm54.856 13.523l-23.516 13.549v-18.041l23.516-13.55v18.042z" fill="#333"/></svg>